<?xml version="1.0" encoding="UTF-8"?>
<svg width="50px" height="59px" viewBox="0 0 50 59" version="1.1" xmlns="http://www.w3.org/2000/svg" xmlns:xlink="http://www.w3.org/1999/xlink">
    <title>2</title>
    <g id="Page-1" stroke="none" stroke-width="1" fill="none" fill-rule="evenodd">
        <g id="Desktop" transform="translate(-714.000000, -1114.000000)" fill="#FFFFFF" fill-rule="nonzero">
            <g id="2" transform="translate(714.000000, 1114.000000)">
                <path d="M49.0740741,57.15625 L45.3703704,57.15625 L45.3703704,31.34375 C45.3703704,30.8346643 44.9557672,30.421875 44.4444444,30.421875 L43.5185185,30.421875 L43.5185185,20.28125 C43.5185185,19.7721643 43.1039153,19.359375 42.5925926,19.359375 L41.6666667,19.359375 L41.6666667,10.140625 C41.6666667,9.94102589 41.6017693,9.74717929 41.4814815,9.5875 L38.8888889,6.14569286 L38.8888889,0.921875 C38.8888889,0.412789286 38.4742857,0 37.962963,0 C37.4516402,0 37.037037,0.412789286 37.037037,0.921875 L37.037037,6.14569286 L34.4444444,9.5875 C34.3241587,9.74717929 34.2592593,9.94102589 34.2592593,10.140625 L34.2592593,12.5605732 C34.2592593,13.0696589 34.6738624,13.4824482 35.1851852,13.4824482 C35.6965079,13.4824482 36.1111111,13.0696589 36.1111111,12.5605732 L36.1111111,10.4480571 L37.962963,7.98986429 L39.8148148,10.4480571 L39.8148148,19.359375 L36.1111111,19.359375 L36.1111111,15.4413536 C36.1111111,14.9322679 35.6965079,14.5194786 35.1851852,14.5194786 C34.6738624,14.5194786 34.2592593,14.9322679 34.2592593,15.4413536 L34.2592593,19.359375 L33.3333333,19.359375 C32.8220106,19.359375 32.4074074,19.7721643 32.4074074,20.28125 L32.4074074,30.421875 L31.4814815,30.421875 C30.9701587,30.421875 30.5555556,30.8346643 30.5555556,31.34375 L30.5555556,35.03125 L19.4444444,35.03125 L19.4444444,31.34375 C19.4444444,30.8346643 19.0298413,30.421875 18.5185185,30.421875 L8.33333333,30.421875 L8.33333333,21.203125 L15.7407407,21.203125 L15.7407407,27.0800518 C15.7407407,27.5891375 16.1553439,28.0019268 16.6666667,28.0019268 C17.1779894,28.0019268 17.5925926,27.5891375 17.5925926,27.0800518 L17.5925926,20.28125 C17.5925926,19.7721643 17.1779894,19.359375 16.6666667,19.359375 L15.7407407,19.359375 L15.7407407,10.140625 C15.7407407,9.94102589 15.6758434,9.74717929 15.5555556,9.5875 L12.962963,6.14569286 L12.962963,0.921875 C12.962963,0.412789286 12.5483598,0 12.037037,0 C11.5257143,0 11.1111111,0.412789286 11.1111111,0.921875 L11.1111111,6.14569286 L8.51851852,9.5875 C8.3982328,9.74717929 8.33333333,9.94102589 8.33333333,10.140625 L8.33333333,19.359375 L7.40740741,19.359375 C6.89608466,19.359375 6.48148148,19.7721643 6.48148148,20.28125 L6.48148148,30.421875 L5.55555556,30.421875 C5.0442328,30.421875 4.62962963,30.8346643 4.62962963,31.34375 L4.62962963,45.171875 C4.62962963,45.6809607 5.0442328,46.09375 5.55555556,46.09375 C6.06687831,46.09375 6.48148148,45.6809607 6.48148148,45.171875 L6.48148148,32.265625 L17.5925926,32.265625 L17.5925926,57.15625 L15.6249735,57.15625 L15.6249735,36.875 C15.6249735,36.3659143 15.2103704,35.953125 14.6990476,35.953125 C14.1877249,35.953125 13.7731217,36.3659143 13.7731217,36.875 L13.7731217,57.15625 L10.1851852,57.15625 L10.1851852,36.875 C10.1851852,36.3659143 9.77058201,35.953125 9.25925926,35.953125 C8.74793651,35.953125 8.33333333,36.3659143 8.33333333,36.875 L8.33333333,57.15625 L6.48148148,57.15625 L6.48148148,51.8555214 C6.48148148,51.3464357 6.06687831,50.9336464 5.55555556,50.9336464 C5.0442328,50.9336464 4.62962963,51.3464357 4.62962963,51.8555214 L4.62962963,57.15625 L0.925925926,57.15625 C0.414603175,57.15625 0,57.5690393 0,58.078125 C0,58.5872107 0.414603175,59 0.925925926,59 L49.0740741,59 C49.5853968,59 50,58.5872107 50,58.078125 C50,57.5690393 49.5853968,57.15625 49.0740741,57.15625 Z M10.1851852,10.4482679 L12.037037,7.990075 L13.8888889,10.4482679 L13.8888889,19.3595857 L10.1851852,19.3595857 L10.1851852,10.4482679 Z M34.2592593,21.203125 L41.6666667,21.203125 L41.6666667,30.421875 L34.2592593,30.421875 L34.2592593,21.203125 Z M32.4074074,32.265625 L43.5185185,32.265625 L43.5185185,57.15625 L41.5508995,57.15625 L41.5508995,50.703125 C41.5508995,50.1940393 41.1362963,49.78125 40.6249735,49.78125 C40.1136508,49.78125 39.6990476,50.1940393 39.6990476,50.703125 L39.6990476,57.15625 L36.1111111,57.15625 L36.1111111,36.875 C36.1111111,36.3659143 35.6965079,35.953125 35.1851852,35.953125 C34.6738624,35.953125 34.2592593,36.3659143 34.2592593,36.875 L34.2592593,57.15625 L32.4074074,57.15625 L32.4074074,32.265625 Z M30.5555556,42.2473714 L26.7783069,36.875 L30.5555556,36.875 L30.5555556,42.2473714 Z M23.2216931,36.875 L19.4444444,42.2473714 L19.4444444,36.875 L23.2216931,36.875 Z M19.4444444,45.46245 L25,37.5606643 L30.5555556,45.46245 L30.5555556,57.1560393 L19.4444444,57.1560393 L19.4444444,45.46245 Z" id="Shape"></path>
                <path d="M6.5,50 C7.32834286,50 8,49.5522286 8,49 L8,48 C8,47.4477714 7.32834286,47 6.5,47 C5.67165714,47 5,47.4477714 5,48 L5,49 C5,49.5522286 5.67165714,50 6.5,50 Z" id="Path"></path>
                <path d="M40.5,49 C41.3283429,49 42,48.5223699 42,47.9333171 L42,46.0666829 C42,45.4776301 41.3283429,45 40.5,45 C39.6716571,45 39,45.4776301 39,46.0666829 L39,47.9333171 C39,48.5223699 39.6716571,49 40.5,49 Z" id="Path"></path>
                <path d="M40.5,45 C41.3283429,45 42,44.5785681 42,44.0588235 L42,37.9411765 C42,37.4214319 41.3283429,37 40.5,37 C39.6716571,37 39,37.4214319 39,37.9411765 L39,44.0588235 C39,44.5785681 39.6716571,45 40.5,45 Z" id="Path"></path>
            </g>
        </g>
    </g>
</svg>