<?xml version="1.0" encoding="UTF-8"?>
<svg width="48px" height="54px" viewBox="0 0 48 54" version="1.1" xmlns="http://www.w3.org/2000/svg" xmlns:xlink="http://www.w3.org/1999/xlink">
    <title>3</title>
    <g id="Page-1" stroke="none" stroke-width="1" fill="none" fill-rule="evenodd">
        <g id="Desktop" transform="translate(-1012.000000, -1119.000000)" fill="#FFFFFF" fill-rule="nonzero">
            <g id="3" transform="translate(1012.000000, 1119.000000)">
                <path d="M7.5242368,54 C7.47158371,54 7.41838163,53.9966922 7.36518235,53.9895256 C6.6922057,53.9018725 6.21723274,53.2827857 6.30444029,52.60636 L9.84693995,25.076554 C9.9341461,24.4001283 10.5500763,23.9227211 11.2230529,24.0103755 C11.8960296,24.0980286 12.3710026,24.7171155 12.283795,25.3935412 L8.74129534,52.9233472 C8.66067013,53.5457492 8.13249929,54 7.5242368,54 L7.5242368,54 Z" id="Path"></path>
                <path d="M11.3264186,20 C11.2822328,20 11.2375862,19.9967592 11.192942,19.9897376 C10.6281883,19.9038588 10.2295968,19.2973029 10.3027803,18.6345689 L12.2404761,1.05476328 C12.3136584,0.39202922 12.8305395,-0.0757147344 13.3952932,0.0101655335 C13.960047,0.0960444186 14.3586385,0.702600254 14.285455,1.36533431 L12.3477592,18.9451399 C12.2805603,19.5549437 11.836865,20 11.3264186,20 L11.3264186,20 Z" id="Path"></path>
                <path d="M35.2618168,20 C34.7513821,20 34.3076739,19.5549299 34.240476,18.9451399 L32.30278,1.36533405 C32.2295977,0.702599985 32.6281881,0.0960455229 33.1929419,0.0101652538 C33.7576958,-0.0757136325 34.2745757,0.392028946 34.3477592,1.05476301 L36.2854552,18.6345688 C36.3586376,19.2973029 35.9600472,19.9038574 35.3952934,19.9897376 C35.3501873,19.9967592 35.3060015,20 35.2618168,20 L35.2618168,20 Z" id="Path"></path>
                <path d="M39.0639987,54 C38.4557502,54 37.9270148,53.5457351 37.84694,52.9233472 L34.30444,25.3935409 C34.2172338,24.7171152 34.6922055,24.0980298 35.3651822,24.0103753 C36.0381589,23.9227222 36.6540877,24.400128 36.7412953,25.0765537 L40.2837953,52.60636 C40.3710014,53.2827857 39.8960298,53.9018711 39.2230531,53.9895256 C39.169851,53.9966922 39.1166504,54 39.0639987,54 L39.0639987,54 Z" id="Path"></path>
                <path d="M23.2941176,12 C22.7418891,12 22.2941176,11.4897939 22.2941176,10.8605658 L22.2941176,5.13943419 C22.2941176,4.51020607 22.7418891,4 23.2941176,4 C23.8463462,4 24.2941176,4.51020607 24.2941176,5.13943419 L24.2941176,10.8605658 C24.2941176,11.4897939 23.8463462,12 23.2941176,12 Z" id="Path"></path>
                <path d="M23.2941176,37 C22.7418891,37 22.2941176,36.4897939 22.2941176,35.8605658 L22.2941176,30.1394342 C22.2941176,29.5102061 22.7418891,29 23.2941176,29 C23.8463462,29 24.2941176,29.5102061 24.2941176,30.1394342 L24.2941176,35.8605658 C24.2941176,36.4897939 23.8463462,37 23.2941176,37 L23.2941176,37 Z" id="Path"></path>
                <path d="M23.2941176,50 C22.7418891,50 22.2941176,49.4897939 22.2941176,48.8605658 L22.2941176,43.1394342 C22.2941176,42.5102061 22.7418891,42 23.2941176,42 C23.8463462,42 24.2941176,42.5102061 24.2941176,43.1394342 L24.2941176,48.8605658 C24.2941176,49.4897939 23.8463462,50 23.2941176,50 Z" id="Path"></path>
                <path d="M46.0850567,32 L40.4149061,32 C39.7472281,32 39.2058452,31.4689539 39.2058452,30.8140408 L39.2058452,26.4387825 L8.38239012,26.4387825 L8.38239012,30.8140408 C8.38239012,31.4689539 7.84100716,32 7.17332915,32 L1.50317862,32 C0.835500607,32 0.294117647,31.4689539 0.294117647,30.8140408 L0.294117647,19.1859456 C0.294117647,18.5310326 0.835500607,18 1.50317862,18 L46.0850567,18 C46.7527347,18 47.2941176,18.5310326 47.2941176,19.1859456 L47.2941176,30.814583 C47.2941176,31.4689674 46.7527347,32 46.0850567,32 L46.0850567,32 Z M41.6239671,29.6280952 L44.875443,29.6280952 L44.875443,20.3713491 L2.71168688,20.3718786 L2.71168688,29.6286247 L5.96316275,29.6286247 L5.96316275,25.2533664 C5.96316275,24.5984533 6.50454571,24.0674207 7.17222372,24.0674207 L40.4138007,24.0668913 C41.0814787,24.0668913 41.6228617,24.5979239 41.6228617,25.252837 L41.6239671,29.6280952 Z" id="Shape"></path>
            </g>
        </g>
    </g>
</svg>