<?xml version="1.0" encoding="UTF-8"?>
<svg width="47px" height="59px" viewBox="0 0 47 59" version="1.1" xmlns="http://www.w3.org/2000/svg" xmlns:xlink="http://www.w3.org/1999/xlink">
    <title>4</title>
    <g id="Page-1" stroke="none" stroke-width="1" fill="none" fill-rule="evenodd">
        <g id="Desktop" transform="translate(-560.000000, -1423.000000)" fill="#FFFFFF" fill-rule="nonzero">
            <g id="4" transform="translate(560.000000, 1423.000000)">
                <path d="M33.546875,52 C32.994875,52 32.546875,52.448 32.546875,53 C32.546875,53.552 32.994875,54 33.546875,54 C34.098875,54 34.546875,53.552 34.546875,53 C34.546875,52.448 34.098875,52 33.546875,52 Z" id="Path"></path>
                <path d="M44.7559845,41.4595186 C43.5847124,39.7330806 41.9414815,38.4144562 40.0039664,37.6459597 L31.5679324,34.3005971 C33.7739719,32.1500974 35.0466738,29.1856989 35.0466738,26.0429179 C35.0466738,24.800348 34.8527842,23.590159 34.4701802,22.4313644 C34.8213893,22.2287828 35.0466738,21.8512757 35.0466738,21.4335519 L35.0466738,17.9028928 L37.0537637,13.8804143 L39.0109438,12.8998869 C39.4006779,12.7046803 39.6466623,12.3056244 39.6466623,11.8692327 L39.6466623,8.41209295 C39.6466623,7.91612516 39.329953,7.47581548 38.8602942,7.31886656 L35.5899324,6.22656206 L27.6908321,0.233579622 C27.4910776,0.0820467148 27.2472782,0 26.9966939,0 L20.0967111,0 C19.8460118,0 19.6023274,0.0820467148 19.4025729,0.233579622 L11.5034726,6.22644682 L8.23311078,7.31875133 C7.76345196,7.47558501 7.44674275,7.91600993 7.44674275,8.41197771 L7.44674275,11.8690022 C7.44674275,12.3055092 7.69284214,12.7044498 8.08246116,12.8996564 L10.0396413,13.8801838 L12.0467313,17.9026623 L12.0467313,21.4335519 C12.0467313,21.8512757 12.2717857,22.2286675 12.6231098,22.4313644 C12.2402758,23.5898133 12.0467313,24.7997719 12.0467313,26.0429179 C12.0467313,29.1855836 13.3193181,32.1498669 15.5245526,34.2996752 L7.08782865,37.6460749 C5.15065849,38.414341 3.5077726,39.7330806 2.33673053,41.4595186 C1.16568845,43.1857262 0.546875,45.2015172 0.546875,47.2886381 L0.546875,57.8475433 C0.546875,58.4839815 1.06184371,59 1.69687213,59 L22.3953254,59 C22.3962454,59 22.3970504,59 22.3979704,59 C22.3987754,59 22.3996954,59 22.4005004,59 L24.6932496,59 C24.6940546,59 24.6949746,59 24.6957796,59 C24.6966996,59 24.6975046,59 24.6984246,59 L45.3968779,59 C46.0319063,59 46.546875,58.4839815 46.546875,57.8475433 L46.546875,47.2897904 C46.546875,45.2022086 45.9274865,43.1861871 44.7559845,41.4595186 Z M35.1816834,38.2122203 L28.146691,49.8906252 L28.146691,46.4013352 C28.146691,45.657153 27.9013966,44.9202306 27.4566927,44.3271205 L25.4268328,41.6149695 C26.3709804,40.9974297 26.9966939,39.9302462 26.9966939,38.7186744 L26.9966939,37.0366015 C27.8533267,36.7675298 28.6720097,36.400048 29.4433128,35.9366915 L35.1816834,38.2122203 Z M11.9252916,12.5061318 C11.8139718,12.2831537 11.6335373,12.1022361 11.4108978,11.9908047 L9.746622,11.1569704 L9.746622,9.2427007 L12.4102453,8.35297783 C12.529155,8.31322204 12.6408198,8.25433739 12.7407545,8.17851332 L20.4828802,2.304683 L26.6104098,2.304683 L34.3524205,8.17851332 C34.4523552,8.25433739 34.56402,8.31322204 34.6829297,8.35297783 L37.346553,9.2427007 L37.346553,11.1569704 L35.6822772,11.9908047 C35.4596377,12.1023514 35.2792032,12.2831537 35.1678834,12.5061318 L33.1858634,16.4784834 L13.9074266,16.4784834 L11.9252916,12.5061318 Z M14.3467255,18.7831664 L32.7466795,18.7831664 L32.7466795,20.5990262 L29.739322,21.5901551 C27.731887,22.2509077 25.6441823,22.5858934 23.5339375,22.5858934 C22.4765152,22.5858934 21.4126528,22.5005049 20.3719054,22.3321478 C19.333228,22.1641364 18.2959306,21.9100451 17.2896831,21.5772489 L15.0684637,20.8406722 C14.9695639,20.7250923 14.8462843,20.6271433 14.7010396,20.5560438 C14.5862699,20.4999248 14.4667852,20.465585 14.3467255,20.4496827 L14.3467255,18.7831664 Z M14.3467255,26.0429179 C14.3467255,25.056744 14.4995601,24.0974197 14.7999394,23.1791188 L16.5679449,23.7655454 C17.6903421,24.1367146 18.8467793,24.4199601 20.0054014,24.6074461 C21.1668984,24.795393 22.3541555,24.8906916 23.5340525,24.8906916 C25.8884416,24.8906916 28.2177608,24.5169873 30.4576102,23.7797192 L32.2930056,23.1750856 C32.5940749,24.0947693 32.7467945,25.0557069 32.7467945,26.0430331 C32.7467945,29.1014627 31.2399533,31.9494747 28.7138696,33.6710729 C28.6960446,33.6822506 28.6789097,33.6944654 28.6616597,33.706565 C27.7248721,34.3367806 26.6925196,34.7834282 25.5922024,35.0334863 C24.2600457,35.3366673 22.8338193,35.3366673 21.5012026,35.0334863 C20.3946754,34.7820453 19.355538,34.3312494 18.4117353,33.6931979 C15.8663317,31.9749415 14.3467255,29.1150603 14.3467255,26.0429179 Z M24.6966996,37.5081396 L24.6966996,38.7186744 C24.6966996,39.3540755 24.1806959,39.8710159 23.5467025,39.8710159 C23.2398833,39.8710159 22.951119,39.7510571 22.7338845,39.5332646 C22.5164201,39.315472 22.3967054,39.0261191 22.3967054,38.7186744 L22.3967054,37.5081396 C22.7781594,37.5461669 23.1620285,37.5663329 23.5467025,37.5663329 C23.9313765,37.5663329 24.3152456,37.5461669 24.6966996,37.5081396 Z M17.6489422,35.9355392 C18.4212803,36.3995871 19.2403083,36.7674145 20.0967111,37.0364863 L20.0967111,38.7186744 C20.0967111,39.6416999 20.4556252,40.5097588 21.1075586,41.1630212 C21.2794832,41.335181 21.4665877,41.4863682 21.6653072,41.6165828 L19.6372873,44.3263138 C19.1920084,44.9202306 18.946714,45.657153 18.946714,46.4013352 L18.946714,49.8910862 L11.9117216,38.2112984 L17.6489422,35.9355392 Z M2.84675425,56.6952018 L2.84675425,47.2886381 C2.84675425,43.9584864 4.84372426,41.0147148 7.93422653,39.7889692 L9.74328701,39.0714061 L19.0167488,54.4674952 L20.3590255,56.6952018 L2.84675425,56.6952018 Z M25.8465818,53.7086783 L24.0476412,56.6952018 L23.0456488,56.6952018 L21.2465933,53.7094849 L21.2465933,46.4013352 C21.2465933,46.153236 21.328013,45.9080178 21.4765927,45.7099303 L23.5465875,42.9440802 L25.6171573,45.7107369 C25.765162,45.9080178 25.8465818,46.153236 25.8465818,46.4013352 L25.8465818,53.7086783 L25.8465818,53.7086783 Z M26.7341495,56.6952018 L37.350233,39.0722127 L39.1579135,39.7890844 C42.2492207,41.0150605 44.2466508,43.959293 44.2466508,47.2897904 L44.2466508,56.6952018 L26.7341495,56.6952018 Z" id="Shape"></path>
                <path d="M22.046875,6 C19.565575,6 17.546875,8.0187 17.546875,10.5 C17.546875,12.9813 19.565575,15 22.046875,15 C24.528175,15 26.546875,12.9813 26.546875,10.5 C26.546875,8.0187 24.528175,6 22.046875,6 Z M22.046875,12.75 C20.806225,12.75 19.796875,11.74065 19.796875,10.5 C19.796875,9.25935 20.8061125,8.25 22.046875,8.25 C23.287525,8.25 24.296875,9.25935 24.296875,10.5 C24.296875,11.74065 23.287525,12.75 22.046875,12.75 Z" id="Shape"></path>
                <path d="M40.546875,52 L38.546875,52 C37.994675,52 37.546875,52.4477 37.546875,53 C37.546875,53.5523 37.994675,54 38.546875,54 L40.546875,54 C41.099075,54 41.546875,53.5523 41.546875,53 C41.546875,52.4477 41.099075,52 40.546875,52 Z" id="Path"></path>
            </g>
        </g>
    </g>
</svg>