<?xml version="1.0" encoding="UTF-8"?>
<svg width="58px" height="58px" viewBox="0 0 58 58" version="1.1" xmlns="http://www.w3.org/2000/svg" xmlns:xlink="http://www.w3.org/1999/xlink">
    <title>5</title>
    <g id="Page-1" stroke="none" stroke-width="1" fill="none" fill-rule="evenodd">
        <g id="Desktop" transform="translate(-853.000000, -1428.000000)" fill="#FFFFFF" fill-rule="nonzero">
            <g id="5" transform="translate(853.000000, 1428.000000)">
                <path d="M57.4477967,33.1667238 C56.8403119,32.7044362 55.9753206,32.8251774 55.5148532,33.4353131 L47.1462174,44.5887934 L45.829784,40.62706 C45.6390542,40.0666422 45.1118429,39.6934602 44.5223429,39.7011955 L30.3915365,39.7011955 C29.8039598,39.6992585 29.2799543,40.0705099 29.0840954,40.62706 L28.2280964,43.2554335 L23.1922181,24.3450945 C23.8600683,24.2417909 24.5401165,24.2417909 25.2086736,24.3450945 C25.9728422,24.5026316 26.2123806,24.7615319 26.2213729,24.8080268 C26.258618,24.9429677 26.3176979,25.0714591 26.3960414,25.1876715 C26.3941149,25.2089785 26.3941149,25.2309301 26.3960414,25.2522354 C26.4679638,25.3600579 26.5585086,25.4536857 26.6631815,25.5298658 L26.7273971,25.5298658 C26.8295005,25.6112178 26.9444463,25.6738446 27.0677418,25.7151677 C27.1942478,25.7506777 27.3239661,25.7719846 27.4549716,25.7797332 L27.5378113,25.7797332 C27.6444109,25.7971659 27.7529372,25.7971659 27.8595302,25.7797332 C28.2133552,25.68676 28.5151824,25.4549798 28.6982021,25.1373172 C28.8818629,24.81901 28.9306715,24.440671 28.8356255,24.0861992 C28.6885702,23.5496653 29.5535666,22.4572258 31.1833348,22.0221112 C32.8125112,21.586947 34.1019841,22.0963608 34.2400749,22.6238504 L34.2394327,22.6238504 C34.4121778,23.2591756 35.0029601,23.6872326 35.65733,23.6510681 L35.9334625,23.6510681 C36.4940785,23.5258129 36.9191847,23.0654608 37.0013817,22.494068 C37.0424801,22.3139397 37.0424801,22.1273321 37.0013817,21.9478483 C36.8170797,21.2350537 37.5812483,20.3556841 38.6305581,20.0968136 C39.1731895,19.9379839 39.7524149,19.9638098 40.2789357,20.1704169 C40.6045178,20.2989001 40.8594434,20.5623259 40.9782509,20.8928973 C41.1766743,21.6341046 41.9350727,22.0731365 42.67233,21.8736367 C43.409538,21.6747814 43.8462011,20.9122688 43.6484188,20.1703674 C42.182354,14.6914764 38.6980253,9.97818886 33.9023265,6.98684794 C29.1066277,3.99616817 23.358595,2.95156243 17.8250964,4.0652576 L17.0146838,1.02945482 L17.0153259,1.02945482 C16.8169025,0.288247546 16.0585041,-0.151428992 15.3212468,0.0480708695 C14.5839895,0.247570731 14.1467346,1.01008333 14.345158,1.75134019 L15.1555706,4.79689483 L15.1555706,4.79624905 C9.78958939,6.59571466 5.31051322,10.3888566 2.63598889,15.3996584 C-0.0391930286,20.4104602 -0.707783015,26.2594259 0.766008287,31.7500522 C0.925907657,32.358254 1.47495698,32.7811541 2.10106758,32.7772699 C2.22243631,32.7792069 2.34317047,32.7637113 2.4600381,32.7307833 C3.19338284,32.531928 3.62942122,31.7752335 3.43612687,31.0372658 C3.24283252,30.3244711 4.00701756,29.4451015 5.06530328,29.186231 C5.60471254,29.0274014 6.1813899,29.0532273 6.70411318,29.2598344 C7.03161871,29.3863805 7.2872019,29.6498095 7.40406952,29.9823148 C7.44131461,30.1172557 7.50039448,30.2457472 7.57873804,30.361315 C7.57681151,30.3832666 7.57681151,30.4045736 7.57873804,30.4265252 C7.6532282,30.5317659 7.74313194,30.6253804 7.84587813,30.7041556 L7.91009367,30.7506422 C8.01669325,30.8242456 8.13100619,30.886874 8.2510795,30.9352994 C8.36666813,30.9727465 8.48803686,30.9914701 8.61005001,30.9908255 L8.74811459,30.9908255 C8.8553553,30.9998646 8.96324044,30.9998646 9.07047458,30.9908255 C9.42429957,30.8952705 9.72612677,30.6621879 9.90914649,30.343236 C10.0928074,30.0236396 10.1416159,29.6439948 10.0459272,29.2876057 C10.0202406,28.9370182 10.1602319,28.5941826 10.4235235,28.3623859 C10.9584448,27.7619359 11.6558366,27.3306394 12.4302798,27.1220984 C13.1738992,26.9135574 13.9605569,26.9135574 14.7041762,27.1220984 C15.127359,27.2699514 15.4317507,27.5017431 15.4869707,27.7425644 L15.4869707,27.7419187 C15.5229318,27.8762133 15.5787994,28.0040453 15.6526468,28.1215634 L15.6526468,28.1861273 C15.7258531,28.2900772 15.8125462,28.3830487 15.9101534,28.4644024 L15.9840025,28.510889 L15.9840025,28.5102434 C16.0861059,28.5864302 16.1972049,28.6484123 16.3153548,28.6955452 C16.4347968,28.7323477 16.55874,28.7510713 16.6833177,28.7510713 L16.7661574,28.7510713 C16.8746837,28.7446149 16.9825655,28.7291197 17.0885174,28.7045847 C17.624721,28.5612505 18.0235077,28.1092916 18.1012167,27.5572704 C18.1423152,27.3739024 18.1423152,27.1847329 18.1012167,27.0013649 C18.1012167,27.0013649 18.1654339,26.612679 18.7549455,26.0755004 L18.7549455,26.0761461 C19.2731643,25.6448495 19.8536885,25.2955512 20.4766428,25.0392426 L26.0923383,46.1148245 C17.8072146,47.1239765 8.85892594,50.9927366 8.25066851,56.2967553 C8.16911434,57.0566894 8.71110294,57.7410715 9.46563806,57.8334001 L9.66792475,57.8334001 C10.3255003,57.8437304 10.8995967,57.3872609 11.0395946,56.7409607 C11.3619546,53.8904432 17.7143156,50.0577979 26.3770521,48.9841019 L24.0479194,56.1482461 C23.9072853,56.5743692 23.9766398,57.0418137 24.2347859,57.4072604 C24.4929337,57.7733352 24.9090639,57.9935124 25.3553605,57.9999794 C25.9448606,58.0031867 26.4727294,57.6319333 26.671794,57.074094 L27.9606092,53.0388085 L28.8814781,56.5744353 C29.0439453,57.1813479 29.5910679,57.6023141 30.2158963,57.601653 C30.3353383,57.6152115 30.4560593,57.6152115 30.5748668,57.601653 C30.951822,57.5125541 31.274182,57.2678585 31.4629719,56.9282459 C31.652403,56.5886333 31.690937,56.1851048 31.5695715,55.8151458 L29.6547114,48.6420762 C34.9776214,48.37671 40.3113815,48.435469 45.6272226,48.8176923 L48.3339681,56.9722284 C48.5876279,57.7011715 49.3813381,58.0840393 50.1056412,57.8283589 C50.8306511,57.573323 51.2114532,56.775307 50.9571522,56.0470747 L48.1951704,47.7170051 L57.7236051,35.1101675 C57.9438601,34.8157606 58.0376303,34.445157 57.9862573,34.0803549 C57.9342414,33.7162139 57.7403075,33.3869317 57.4474891,33.1661265 L57.4477967,33.1667238 Z M17.0890946,7.02844044 C18.2860794,7.07492705 22.2257463,12.0729605 25.26391,21.6064755 L25.2645521,21.6071211 C22.4557179,21.3301353 19.6431027,22.0868298 17.3473419,23.7358358 C15.2391546,13.9524089 16.159333,7.6857662 17.0891942,7.02875548 L17.0890946,7.02844044 Z M39.5617405,17.2103712 C38.9972776,17.1922923 38.4328147,17.2581487 37.8864023,17.4047142 C37.1318672,17.604214 36.4293299,17.9644873 35.8244096,18.4596999 C34.3377956,14.4748265 31.930247,10.9030021 28.8003515,8.03760892 C28.4779915,7.7599785 28.1652486,7.49138921 27.8794827,7.24152679 C32.9692822,8.82788952 37.1909175,12.4402585 39.5617405,17.238007 L39.5617405,17.2103712 Z M26.9772232,10.1482084 C29.6987642,12.6481548 31.8036637,15.7505678 33.1271989,19.2098326 C32.2532152,19.1149222 31.3701569,19.1840067 30.5212269,19.4132166 C29.5599007,19.6682525 28.6609455,20.118904 27.8794169,20.7367916 C26.7119572,16.9816654 25.1470259,13.363561 23.2121097,9.94413009 C22.6322431,8.93239968 21.9797966,7.96400719 21.2599322,7.04716731 C23.3926142,7.58692435 25.3576145,8.652885 26.9770588,10.1482579 L26.9772232,10.1482084 Z M6.65978124,26.3364568 C5.88854371,26.215076 5.10124489,26.2596254 4.34856742,26.4662326 C3.80016581,26.6102113 3.27808367,26.8419931 2.80224553,27.1512592 C2.56208248,23.3199363 3.45597431,19.5034891 5.37024262,16.1830643 C6.10680949,14.8898358 6.99042669,13.6875805 8.00383288,12.6009922 C7.84714577,12.980637 7.70008227,13.3783475 7.56202428,13.7857602 L7.56138216,13.7857602 C6.273208,17.8379049 5.96367073,22.1404574 6.65978026,26.3365659 L6.65978124,26.3364568 Z M11.7047012,24.4854221 C10.8576945,24.7120453 10.0594471,25.0916901 9.34795028,25.605613 C8.7802817,21.9460219 9.06346663,18.2046144 10.1763476,14.6741115 C10.8313586,12.5653963 12.0025994,10.6556851 13.5824248,9.12018079 C13.4212415,10.2765362 13.3441851,11.4426104 13.3525363,12.6098581 C13.3640954,16.5580381 13.802055,20.4931605 14.6599774,24.3464664 C13.6755375,24.1869921 12.6693317,24.2341233 11.7046683,24.4852799 L11.7047012,24.4854221 Z M30.300939,45.8205025 L31.3964764,42.4514838 L43.5302257,42.4508381 L44.6533648,45.9682835 C39.8757493,45.6622405 35.0844891,45.6125391 30.300939,45.8204305 L30.300939,45.8205025 Z" id="Shape"></path>
            </g>
        </g>
    </g>
</svg>