<?xml version="1.0" encoding="UTF-8"?>
<svg width="72px" height="70px" viewBox="0 0 72 70" version="1.1" xmlns="http://www.w3.org/2000/svg" xmlns:xlink="http://www.w3.org/1999/xlink">
    <title>deals</title>
    <g id="Page-1" stroke="none" stroke-width="1" fill="none" fill-rule="evenodd">
        <g id="Desktop" transform="translate(-1012.000000, -1111.000000)" fill="#FFFFFF" fill-rule="nonzero">
            <g id="deals" transform="translate(1012.000000, 1111.000000)">
                <path d="M36.0032502,0 C30.7326875,0 26.4441561,4.30117389 26.4441561,9.58650689 C26.4441561,14.8713137 30.7328187,19.1714351 36.0032502,19.1714351 C41.2738128,19.1714351 45.5623442,14.8711821 45.5623442,9.58650689 C45.5623442,4.30170011 41.2736816,0 36.0032502,0 Z M36.0032502,1.50366777 C40.4635222,1.50366777 44.0623357,5.11365439 44.0623357,9.58611222 C44.0623357,14.0585701 40.4635222,17.666978 36.0032502,17.666978 C31.5429781,17.666978 27.9425902,14.0584385 27.9425902,9.58611222 C27.9425902,5.11378595 31.5428469,1.50366777 36.0032502,1.50366777 Z M39.9792633,6.12096708 L39.9792633,6.12148107 C39.7845102,6.12867539 39.6000169,6.21192478 39.4657338,6.3532406 L34.6718204,11.2289129 L32.5408715,9.06234212 L32.5408715,9.06285597 C32.2487418,8.77302828 31.7787837,8.77200216 31.486654,9.06131428 C31.1940126,9.35011584 31.1878724,9.82134401 31.4723033,10.1178547 L34.1368423,12.8270877 L34.1368423,12.8276016 C34.2777772,12.9709697 34.4704836,13.051652 34.6708652,13.051652 C34.8717585,13.051652 35.064465,12.9709723 35.2053999,12.8276016 L40.5327721,7.40913545 L40.5322597,7.4086216 C40.7531478,7.19125412 40.8177244,6.8603025 40.6952362,6.57510553 C40.573261,6.29040847 40.2888182,6.11003412 39.9792783,6.1213478 L39.9792633,6.12096708 Z M24.4504423,6.47708508 L24.4504423,6.47759893 L24.4448048,6.47759893 C24.3520425,6.48273771 24.2613348,6.50534903 24.1767634,6.54389055 C23.268099,6.92981879 22.380899,7.35788392 21.5199652,7.82705984 L21.5199652,7.82654599 C21.3405887,7.91955896 21.2063187,8.08040668 21.1468589,8.27413381 C21.0874096,8.46736104 21.1084213,8.67650636 21.2047719,8.8543154 C21.3011225,9.03212445 21.465125,9.16316587 21.6593533,9.21814249 C21.8530831,9.27364269 22.061153,9.24794747 22.236423,9.14722673 C23.0548874,8.70169115 23.8974138,8.29468789 24.7614964,7.92880855 C25.0997429,7.79211029 25.2909143,7.43084852 25.2140311,7.07319134 C25.1371559,6.71500794 24.8147898,6.46475184 24.4504083,6.48017003 L24.4504423,6.47708508 Z M47.53769,6.47759893 C47.1768903,6.47246015 46.8637555,6.72528971 46.7920022,7.07986852 C46.7202529,7.43444732 46.9103891,7.79005225 47.2445369,7.92623745 C48.1080947,8.292643 48.9511853,8.69912005 49.7696104,9.14516869 L49.7690979,9.14465484 C49.9443679,9.24588996 50.1529626,9.27209824 50.3471909,9.21711242 C50.5419441,9.16212659 50.705944,9.03056816 50.8028088,8.85277227 C50.8991594,8.67445017 50.9201711,8.46479178 50.8602088,8.27105149 C50.8002465,8.07782426 50.6654557,7.91647269 50.4850558,7.82397673 C49.6240564,7.35531388 48.737473,6.92622261 47.8282577,6.54080744 L47.8287701,6.54132129 C47.7370325,6.49969613 47.6381235,6.47759893 47.5371521,6.47502967 L47.53769,6.47759893 Z M52.5673697,9.21458999 L52.5673697,9.21510384 C52.2347517,9.21202047 51.9400767,9.42939294 51.8437235,9.74851781 C51.7468612,10.0676427 51.8719104,10.4124601 52.1496816,10.5953998 C52.9179227,11.1154478 53.660055,11.6735283 54.3733889,12.2640369 C54.5266304,12.3935365 54.7254769,12.4567379 54.9248352,12.4387544 C55.1247051,12.4207683 55.3086999,12.3236442 55.4363049,12.1684494 C55.5639178,12.0132546 55.6243931,11.8133575 55.6038866,11.6134474 C55.5833866,11.4135503 55.483962,11.2300844 55.3276452,11.1036737 C54.5773391,10.4823814 53.7978542,9.8975822 52.9901876,9.35031554 C52.866163,9.26346853 52.7185644,9.21670881 52.5673697,9.21516962 L52.5673697,9.21458999 Z M19.4144651,9.21561769 L19.4149775,9.21613155 C19.2714711,9.22178431 19.132596,9.26854812 19.0147128,9.35076441 C18.2064952,9.89805738 17.4260132,10.4833696 16.6756809,11.1041226 L16.6761934,11.1041226 C16.5224402,11.2310516 16.4250636,11.4139992 16.4055935,11.6128701 C16.3866312,11.811741 16.4471065,12.0100989 16.5742117,12.1642676 C16.7007986,12.3179232 16.8837647,12.4150367 17.0820996,12.4340595 C17.2804345,12.4525587 17.4782577,12.3914069 17.6314992,12.2639595 C18.3448987,11.6740166 19.087031,11.1159362 19.8552065,10.5953225 L19.8552065,10.5958364 C20.1365647,10.4103183 20.2600763,10.0593441 20.1575829,9.73816698 C20.05457,9.41647679 19.7511649,9.20321382 19.4144535,9.21605353 L19.4144651,9.21561769 Z M15.0340937,12.8415224 L15.0346062,12.8420363 C14.8398531,12.8482029 14.6553598,12.9299107 14.5195416,13.0696913 C13.8322771,13.7588132 13.1768418,14.4808763 12.5577094,15.2325786 L12.5582219,15.2325786 C12.4285596,15.3862342 12.3660402,15.5851051 12.3839753,15.7855152 C12.4019129,15.9854123 12.4992882,16.1699043 12.6540634,16.2978542 C12.8083282,16.425812 13.0076865,16.4859376 13.2070448,16.4658887 C13.406403,16.4453333 13.5893744,16.3461531 13.7149327,16.1894138 C14.3032856,15.4740863 14.9254618,14.7880955 15.5788898,14.1328226 C15.8008013,13.9169943 15.8679363,13.5860558 15.7469831,13.3003326 C15.6265456,13.0146094 15.3431367,12.8326959 15.0340953,12.8419442 L15.0340937,12.8415224 Z M56.9472162,12.8415224 L56.9477286,12.8420363 C56.6422821,12.8420363 56.3675758,13.0275544 56.2527759,13.3112122 C56.1379759,13.59487 56.2061382,13.9196517 56.4249757,14.1329147 C57.0784169,14.7881218 57.7011048,15.4741126 58.2899824,16.1895059 C58.4155447,16.3457269 58.5985121,16.4443927 58.7973587,16.4644285 C58.996717,16.4844695 59.1950519,16.4238321 59.3493167,16.2963939 C59.5040932,16.1689505 59.6009581,15.9844651 59.6194048,15.7850811 C59.6373425,15.5851841 59.5753295,15.3863132 59.4466933,15.2331706 C58.8270755,14.4808368 58.1726241,13.7593657 57.4853859,13.0702833 L57.4853859,13.0697694 C57.3439393,12.924336 57.1502095,12.8421144 56.9472563,12.8426275 L56.9472162,12.8415224 Z M11.4208483,17.2378102 L11.4208483,17.2388379 C11.1738251,17.243463 10.9447369,17.3703924 10.8089188,17.5779985 C10.2631009,18.3884005 9.7547013,19.2265078 9.28673747,20.0898999 C9.19141287,20.2651304 9.1698869,20.4711974 9.22626219,20.6628854 C9.28263747,20.8540472 9.41230366,21.015412 9.58757361,21.1104732 C9.76233189,21.2055424 9.96784342,21.2276383 10.1585031,21.1705976 C10.3496614,21.1140699 10.5100795,20.9835403 10.6048846,20.8083097 C11.0492193,19.9876333 11.5325073,19.190058 12.051626,18.4198065 C12.2125558,18.1875339 12.2299791,17.8848533 12.0972389,17.6356233 C11.9639923,17.3863934 11.7031275,17.2332508 11.4212576,17.2389076 L11.4208483,17.2378102 Z M60.5604616,17.2378102 L60.5604616,17.2388379 C60.2826852,17.2414073 60.028997,17.3976242 59.901392,17.6453149 C59.7737791,17.8924927 59.7932544,18.1905425 59.9516167,18.4192237 C60.470263,19.189541 60.9540627,19.98709 61.398358,20.8077269 C61.492145,20.9855359 61.6525579,21.1186296 61.8447395,21.1766978 C62.0364094,21.2347672 62.2434691,21.2136975 62.4197624,21.1176009 C62.5960689,21.0215043 62.7262323,20.8585964 62.7820972,20.6658954 C62.8374478,20.4726682 62.8138725,20.265062 62.7159843,20.0898315 C62.2485846,19.2265051 61.7396733,18.3883057 61.1938029,17.5779301 C61.0538914,17.3641541 60.8155799,17.236191 60.5603567,17.2382564 L60.5604616,17.2378102 Z M8.69057821,22.2831878 L8.69109068,22.2842156 C8.39024929,22.2888406 8.12118452,22.4738383 8.00793276,22.7533916 C7.62304471,23.6645116 7.28120335,24.5981801 6.98549188,25.5524763 C6.92552959,25.7431251 6.94397892,25.9502182 7.03622951,26.1270011 C7.12899178,26.3042971 7.28787093,26.4368777 7.47851752,26.496485 C7.66865242,26.5555819 7.87467564,26.5365684 8.05098207,26.443041 C8.22728851,26.350028 8.35951178,26.1902064 8.4179351,25.9990446 C8.6992933,25.0925553 9.02268795,24.2045099 9.38860449,23.3386183 L9.38809202,23.3386183 C9.49110494,23.1042934 9.46804262,22.8334754 9.32710506,22.6202124 C9.18565844,22.4069494 8.94632357,22.2800256 8.69108727,22.2836171 L8.69057821,22.2831878 Z M63.2894197,22.2831878 L63.2899322,22.2842156 C63.0388024,22.2878129 62.8061325,22.4178224 62.6708261,22.6300592 C62.5350079,22.841783 62.5145145,23.1079704 62.6154767,23.3387038 C62.9808947,24.2045954 63.3047879,25.0925882 63.5861461,25.9991301 C63.6399591,26.1954357 63.7711643,26.361418 63.9495043,26.4590578 C64.1278574,26.5566962 64.3379741,26.5772516 64.5317039,26.5171272 C64.7254337,26.4564885 64.886862,26.3197955 64.9780853,26.137882 C65.0698229,25.9564815 65.0836606,25.7452708 65.0175476,25.5530828 C64.7218362,24.5987997 64.3805065,23.6650128 63.9961301,22.753998 L63.9961301,22.7534842 C63.8797925,22.4662218 63.5994603,22.2796775 63.2899072,22.2843083 L63.2894197,22.2831878 Z M21.4484572,24.7498344 C17.0624443,24.7498344 13.4909204,28.3311422 13.4909204,32.728877 C13.4909204,34.4390853 14.0316084,36.0285266 14.9478954,37.329732 L12.3720476,38.0214192 L12.3720476,35.0655215 L12.3720476,35.0660353 C12.4197099,34.7828906 12.3023477,34.4976805 12.0696712,34.3306721 C11.9374479,34.2314918 11.7760064,34.1785688 11.6109832,34.180621 C11.5274456,34.1821627 11.4444249,34.1980928 11.3660067,34.2268703 L6.62286767,35.1785881 C5.97660317,35.3080877 5.35493864,35.5706862 4.86190251,36.0198133 C4.3688795,36.4689534 4.02499142,37.1390525 4.02499142,37.8965695 L4.02499142,38.0276096 L0.899809626,38.0276096 L0.900322093,38.0281235 C0.855222125,38.0193875 0.810122157,38.0147628 0.763992269,38.0142484 C0.669179344,38.016304 0.575392402,38.0363457 0.487750864,38.0733454 C0.4831384,38.0754009 0.478525805,38.0769426 0.47391321,38.0789981 C0.472888276,38.079512 0.472375809,38.0800258 0.471350744,38.0805397 C0.119262673,38.2218555 -0.0724072721,38.6047054 0.0254809789,38.9721239 L0.0254809789,50.2791003 C0.0254809789,50.2837253 0.0254809789,50.2883503 0.0259934457,50.2929754 C0.0254809789,50.2976003 0.0254809789,50.3022252 0.0259934457,50.3068504 C0.0265059125,50.5401492 0.134642713,50.7600951 0.319146519,50.901924 C0.503650325,51.0437529 0.7434995,51.0915466 0.967969421,51.0319367 L4.08803442,51.0319367 C4.20898499,51.5581546 4.49290422,52.0175692 4.86139228,52.3526121 C5.35441529,52.8017523 5.97607981,53.0633089 6.62235743,53.1928112 L11.47413,54.1661039 C11.47618,54.1666177 11.4777175,54.1671316 11.4797675,54.1676456 C11.48643,54.1686733 11.49258,54.1697011 11.4992429,54.1702149 C11.7457544,54.2154368 11.9984191,54.1337296 12.1726657,53.9528475 C12.3464007,53.7719601 12.4191772,53.5160471 12.3658838,53.2709216 L12.3658838,51.377721 L16.0969468,53.7950347 L15.0437658,55.6224581 C14.0279899,57.3846304 14.6363245,59.6553924 16.395256,60.6724401 C17.4320371,61.2721444 18.6446785,61.3065722 19.6736793,60.8728502 C19.8135909,61.9823281 20.4501204,63.0173198 21.4868621,63.6169452 C22.5241548,64.2171625 23.7366781,64.2510773 24.7658101,63.8173553 C24.9057217,64.9268332 25.5427629,65.961825 26.5795177,66.5614503 C27.6168104,67.1616676 28.8293337,67.1955824 29.8584657,66.7618604 C29.9978657,67.8718514 30.6343951,68.9073825 31.6711237,69.5070078 C33.4299896,70.5239898 35.6947624,69.9165764 36.7110369,68.15397 L37.1471716,67.3980447 L37.9917711,67.8867433 C39.750637,68.9037253 42.0154098,68.2952858 43.0316843,66.5337055 C43.482684,65.7515746 43.6128605,64.8698043 43.4657723,64.0414057 C44.9858544,64.3625829 46.6105029,63.6924838 47.4273535,62.2751552 C47.8783532,61.4925113 48.0085298,60.6102017 47.8614415,59.7818031 C49.3815237,60.1019541 51.0061721,59.4328811 51.8230227,58.0155525 C52.4216223,56.9769957 52.456469,55.762682 52.0234044,54.731821 C53.1309153,54.5920444 54.164062,53.9543077 54.763252,52.9157114 C54.8401273,52.7826177 54.9067585,52.6454064 54.9651818,52.5071689 L59.6268457,51.2558621 L59.6268457,53.2543063 L59.6268457,53.2532786 C59.5648328,53.5066262 59.6386331,53.7738397 59.8215989,53.9593578 C60.0040455,54.144876 60.2695285,54.2224668 60.5232166,54.1638856 L60.5483296,54.1613162 L60.548842,54.1613162 L65.3776546,53.1931541 C66.0239191,53.0636545 66.6445472,52.8020821 67.1375702,52.3529551 C67.5055466,52.0173859 67.7904997,51.5584844 67.9114397,51.0322796 L71.0325543,51.0322796 L71.0320419,51.0317656 C71.26113,51.0929174 71.5061065,51.0420433 71.6916232,50.8940412 C71.8776646,50.7455294 71.9822047,50.5183874 71.9745164,50.280458 L71.9745164,50.2748052 L71.9745164,50.2609302 L71.9745164,38.9796068 C72.0734293,38.6080707 71.8766295,38.2216294 71.5188985,38.083905 C71.4225492,38.0433086 71.3185169,38.0227532 71.213452,38.0248081 C71.176039,38.0263496 71.1386274,38.0309745 71.1022391,38.0386831 L67.9739085,38.0386831 L67.9739085,37.907643 C67.9739085,37.1501786 67.6300204,36.4800137 67.1369974,36.0308867 C66.6439744,35.5817466 66.0233332,35.3191506 65.3770818,35.1896616 L60.6364356,34.2389699 L60.6364356,34.2384561 C60.5498226,34.2065949 60.4580824,34.190665 60.3658358,34.1922068 C60.2336125,34.1942623 60.1039476,34.2317757 59.9906827,34.3001222 C59.7144413,34.4594216 59.5689013,34.7770072 59.6278363,35.0909883 L59.6278363,37.9003344 L57.1949964,37.2471927 L57.1293964,37.2276647 C57.9991075,35.9475738 58.5090947,34.3997695 58.5090947,32.7383679 C58.5090947,28.3405015 54.9374396,24.7593253 50.5515579,24.7593253 C46.165545,24.7593253 42.5940211,28.340633 42.5940211,32.7383679 C42.5940211,33.1864688 42.6334834,33.6268737 42.7026704,34.0560176 L33.6944847,36.4728051 L29.4283885,34.0056323 L29.4273636,34.0051184 C29.3904636,33.9794245 29.3515143,33.9573273 29.3105143,33.9388268 C29.3694519,33.5467286 29.4012272,33.1459084 29.4012272,32.7383921 C29.4012272,28.3405257 25.8295722,24.7593495 21.4436905,24.7593495 L21.4484572,24.7498344 Z M21.4484572,26.2534898 C25.0241795,26.2534898 27.9065103,29.1436227 27.9065103,32.7290086 C27.9065103,33.1288158 27.867048,33.5178224 27.7999103,33.8960416 C27.6886974,33.9155695 27.5779988,33.9422909 27.4672923,33.970041 L23.7880533,34.9577257 C23.8403286,34.760394 23.8680039,34.5563793 23.8680039,34.3451818 C23.8680039,33.0399113 22.8496696,31.9453648 21.5668887,31.8815609 L21.5663762,31.8820748 C21.5274255,31.8769359 21.4884762,31.8753943 21.4495269,31.876422 C20.943174,31.876422 20.5301042,31.463262 20.5301042,30.9097991 C20.5301042,30.3568625 20.9436856,29.9431762 21.4495269,29.9431762 C21.9558798,29.9431762 22.3694613,30.3563362 22.3694613,30.9097991 C22.3633113,31.1127877 22.4391612,31.3101194 22.5806144,31.4565659 C22.7215494,31.6025124 22.9157908,31.684734 23.118744,31.684734 C23.3216971,31.684734 23.5159254,31.6025124 23.6573852,31.4565659 C23.7983201,31.3101063 23.8746785,31.1127745 23.8685383,30.9097991 C23.8685383,29.828066 23.1689804,28.88978 22.1992819,28.5633933 L22.1992819,28.3717184 L22.1987694,28.3712046 C22.2018443,28.168216 22.1224071,27.9724366 21.9794163,27.8290554 C21.8364346,27.6851611 21.6411698,27.6060311 21.4387283,27.6085964 C21.2398818,27.6116798 21.0502585,27.6933872 20.9113703,27.8362514 C20.7724821,27.9791064 20.6966354,28.1718206 20.6991938,28.3712046 L20.6991938,28.5628795 C19.7295478,28.8897134 19.0299374,29.8280653 19.0299374,30.9092853 C19.0299374,32.2135296 20.0487834,33.3075235 21.3305278,33.3723799 C21.3699901,33.3775187 21.4099654,33.3795743 21.4494277,33.3780326 C21.9557806,33.3780326 22.3693621,33.7911927 22.3693621,34.3446555 C22.3693621,34.8975922 21.9557806,35.3112784 21.4494277,35.3112784 C20.9430748,35.3112784 20.530005,34.8981184 20.530005,34.3446555 L20.530005,34.3451694 C20.5310299,34.1447593 20.452618,33.9525582 20.3116752,33.8107293 C20.1707324,33.6689004 19.979582,33.5892442 19.7802106,33.5892442 C19.5803407,33.5892442 19.3891693,33.6688965 19.2482344,33.8107293 C19.1072994,33.9525582 19.0288812,34.1447593 19.0299046,34.3451694 C19.0299046,35.0019157 19.289746,35.6057245 19.7094808,36.0523519 L16.5181742,36.9084822 C15.5659515,35.7805078 14.9908761,34.3261992 14.9908761,32.7289962 C14.9908761,29.1436103 17.8742565,26.2534898 21.4494539,26.2534898 L21.4484572,26.2534898 Z M50.5564687,26.2534643 C54.132191,26.2534643 57.0145217,29.1436227 57.0145217,32.7290086 C57.0145217,34.2758262 56.4758805,35.6879321 55.5769643,36.8004884 L52.3912994,35.9453842 C52.7546575,35.5116622 52.9760574,34.9510165 52.9760574,34.3451554 C52.9760574,33.039885 51.9566997,31.9453385 50.6733678,31.8815346 L50.6733678,31.8820485 C50.6349302,31.8769095 50.5959809,31.875368 50.5565172,31.8763957 C50.0501643,31.8763957 49.6365828,31.4632357 49.6365828,30.9097728 C49.6365828,30.3568361 50.0501643,29.9431499 50.5565172,29.9431499 C51.0628702,29.9431499 51.4764516,30.3563099 51.4764516,30.9097728 C51.4759392,31.1096698 51.5543516,31.3018709 51.6952931,31.4431868 C51.8357163,31.5850157 52.0268746,31.6646719 52.226246,31.6646719 C52.4261159,31.6646719 52.6172873,31.5850196 52.7577106,31.4431868 C52.8986455,31.3018709 52.9770637,31.1096698 52.976552,30.9097728 C52.976552,29.8280397 52.2764824,28.8897537 51.3063772,28.563367 L51.3063772,28.3711791 C51.3089398,28.1681905 51.2300149,27.9724111 51.0865124,27.8290299 C50.9435307,27.6851356 50.7482659,27.6060055 50.5458244,27.6090839 C50.1317313,27.6152505 49.8016717,27.9564667 49.8073133,28.3711791 L49.8073133,28.5628539 C48.8371556,28.8891748 48.1371385,29.8280397 48.1371385,30.9092597 C48.1371385,32.2135041 49.1554728,33.307498 50.4377288,33.3723544 L50.4377288,33.3728682 C50.4771911,33.3780071 50.5171664,33.3800627 50.5566288,33.378521 C51.0629817,33.378521 51.4765631,33.791681 51.4765631,34.3451439 C51.4765631,34.8980805 51.0629817,35.3117668 50.5566288,35.3117668 C50.0502758,35.3117668 49.6366944,34.8986067 49.6366944,34.3451439 C49.6387444,34.1442207 49.5608451,33.9509935 49.4199128,33.8081385 C49.2789804,33.6652834 49.0872947,33.5851141 48.8869131,33.5851141 C48.6865315,33.5851141 48.4948484,33.6652795 48.3539135,33.8081385 C48.2129786,33.9509974 48.1350721,34.1442207 48.1371319,34.3451439 C48.1371319,34.5059955 48.1509696,34.6627296 48.1832565,34.815859 L45.0303916,33.9700031 C44.7531268,33.8954893 44.4733036,33.8512962 44.1960389,33.8353702 C44.1371012,33.4761607 44.0991766,33.1071899 44.0991766,32.7289707 C44.0991766,29.1435848 46.9815074,26.2534643 50.5572296,26.2534643 L50.5564687,26.2534643 Z M6.96398743,27.8609664 L6.9644999,27.8614803 C6.60883007,27.8666192 6.30543028,28.1220239 6.23880697,28.4729981 C6.03636551,29.4648006 5.88262546,30.4735472 5.77858393,31.4971727 C5.75705928,31.6960436 5.8159969,31.8954275 5.94156046,32.0511354 C6.06712271,32.2063303 6.24957848,32.3049961 6.44791338,32.3255449 C6.64675996,32.3455859 6.84509486,32.285976 6.99935971,32.1590496 C7.15362456,32.0321232 7.25151281,31.8486599 7.2704712,31.6492759 C7.36887113,30.6754702 7.51493599,29.7160828 7.70762929,28.7736265 C7.75631627,28.549576 7.70045436,28.315238 7.55593596,28.1379552 C7.41140614,27.9601461 7.19360118,27.8584019 6.9650247,27.8614803 L6.96398743,27.8609664 Z M65.0173225,27.8609664 L65.0183474,27.8614803 C64.7933658,27.8655914 64.5827244,27.9704232 64.4433245,28.1472035 C64.3039246,28.3239838 64.2511428,28.5536805 64.2987947,28.7736265 C64.4915011,29.7160959 64.6375528,30.6755096 64.7359527,31.6492759 L64.7359527,31.6497898 C64.7528657,31.850713 64.849728,32.0362311 65.0045058,32.1652203 C65.1592824,32.2936911 65.3591523,32.3548429 65.559547,32.3342941 C65.759417,32.3142531 65.9429001,32.2140454 66.06897,32.05628 C66.1945323,31.8990329 66.2519283,31.6975835 66.22784,31.4971734 C66.1238024,30.4729955 65.9700584,29.464262 65.767617,28.4729989 C65.6994547,28.1132764 65.3832406,27.8553112 65.0183474,27.8614811 L65.0173225,27.8609664 Z M28.6382121,35.3333927 C28.6776745,35.3349344 28.7202121,35.3390455 28.7617251,35.3472678 L31.648123,37.0164311 L31.1366533,37.1536424 C28.950338,37.7404938 27.6450302,40.0062699 28.2312313,42.1969152 C28.8170127,44.3880867 31.0756453,45.6846877 33.260911,45.1080844 L41.765289,42.8660013 C45.4076608,44.9724517 49.0258919,47.0644311 52.6691821,49.1714078 C53.5306932,49.6693678 53.9248046,50.6298208 53.716223,51.5420196 L53.7172479,51.5435613 C53.6736856,51.6268103 53.6465233,51.7172526 53.6362726,51.8107747 C53.590148,51.9315378 53.5388974,52.0512695 53.4717611,52.1674058 C52.8588082,53.2306291 51.5406296,53.5851685 50.4788288,52.9711248 L44.467249,49.4936135 C44.3591114,49.4288637 44.2366258,49.3923784 44.1110675,49.3877529 C43.7702495,49.3754197 43.4642913,49.594846 43.3658914,49.9216799 C43.2669785,50.249027 43.4012537,50.6015535 43.6913328,50.7798625 C43.6995328,50.7850014 43.7082457,50.7896263 43.7164457,50.7942519 L49.7290751,54.2707107 C50.7914926,54.8853201 51.1430165,56.202983 50.5306278,57.2662064 C49.917675,58.3294297 48.5994964,58.6825219 47.5376955,58.0683861 L46.0832134,57.227161 L40.4344013,53.9604 L40.4344013,53.9609139 C40.3267767,53.8961641 40.2048015,53.8601931 40.0797549,53.8550533 C39.732285,53.8411782 39.4211969,54.0678032 39.3274021,54.4033724 C39.2336073,54.7389416 39.3817268,55.0950596 39.6856435,55.2636203 L44.1238739,57.8289328 L45.3384964,58.5314074 C46.3973191,59.1465299 46.7478458,60.4626273 46.1354309,61.524272 C45.5224781,62.5874953 44.2058739,62.9411138 43.143417,62.3264517 L37.494605,59.060217 L37.4951175,59.0607308 C37.490505,59.0586753 37.4858925,59.0566198 37.4812798,59.0550781 L36.4019507,58.4307073 C36.2938131,58.3664719 36.1718391,58.3299866 36.0467925,58.3253611 C35.700346,58.3120004 35.390793,58.5386241 35.2970113,58.8731672 C35.2032243,59.2071971 35.3497983,59.5628021 35.6521694,59.7323758 L36.7361037,60.3593119 C36.7381537,60.3603396 36.7396912,60.3613674 36.7417412,60.3623951 L38.6220983,61.4497719 L40.9344967,62.7874179 C41.9969142,63.4020273 42.3500125,64.7186377 41.7370728,65.7818611 C41.1241199,66.8450844 39.8059413,67.1987029 38.7441405,66.5845539 L37.8769878,66.0830024 C38.5996106,64.3897646 37.9595007,62.3717188 36.3302721,61.4292625 C35.8905425,61.1748888 35.4190494,61.0217462 34.9434891,60.963165 C34.4561076,60.9040681 33.965643,60.943637 33.4992405,61.0746784 C33.5387028,59.7575549 32.8724592,58.4579282 31.6583746,57.7555588 C31.218645,57.501185 30.7471519,57.3495948 30.2715916,57.2904874 C29.7842101,57.2313905 29.2932339,57.2709594 28.8268182,57.4014865 C28.8662805,56.084363 28.2000369,54.7852624 26.9864771,54.0832877 C26.5467475,53.8289139 26.0752544,53.6757714 25.5996941,53.6171901 C24.9534296,53.5375379 24.3005132,53.6310652 23.7070042,53.8838906 C23.5676043,52.7733865 22.9310748,51.7374476 21.8938215,51.1376907 C21.4540919,50.8833169 20.9825988,50.7306874 20.5070384,50.6721062 C19.0802395,50.4968756 17.6160485,51.1685139 16.8539082,52.4901892 L16.8523708,52.4927587 L12.4162395,49.6190825 L12.4152145,49.6185687 C12.3998392,49.6093187 12.3844639,49.6010969 12.3690898,49.5933878 L12.3690898,39.5376261 C12.4592898,39.5453344 12.5505131,39.5371123 12.6381546,39.5124453 L15.6808117,38.6963996 L27.8522271,35.4301649 C28.1166736,35.3587347 28.3790734,35.331499 28.6353331,35.3407486 L28.6382121,35.3333927 Z M43.8574014,35.3333927 C44.113648,35.32774 44.3775828,35.3529207 44.6415308,35.422809 L56.8118966,38.6890438 L59.6321698,39.444969 L59.6321698,49.6984571 L55.2538977,50.8742253 C55.1882977,49.6660816 54.5353683,48.5119014 53.4165742,47.8649165 C49.7137192,45.7236041 46.0381538,43.5975521 42.3352988,41.456766 L42.3368363,41.4583076 C42.2368987,41.3822534 42.1185066,41.3318917 41.9939716,41.3133872 C41.960147,41.3067068 41.9258093,41.301568 41.8914717,41.2995122 C41.7823094,41.2959151 41.6736536,41.3159565 41.573207,41.3586091 L32.8801635,43.6505513 C31.4651725,44.0236267 30.0563479,43.2147771 29.6786233,41.8036579 C29.3014236,40.3929992 30.1152698,38.9808933 31.524606,38.6026742 L43.5514392,35.3749849 L43.5514392,35.3754987 C43.6524014,35.3821793 43.7538806,35.3688183 43.8491974,35.3359298 C43.8517598,35.3359298 43.8548349,35.3354159 43.8548349,35.3354159 L43.8574014,35.3333927 Z M10.8724327,35.8596107 L10.8724327,52.5117774 L6.91741146,51.718346 C6.48076505,51.6304715 6.10356532,51.4516456 5.86985892,51.2388957 C5.63616565,51.0266588 5.52443581,50.814935 5.52443581,50.4752614 L5.52443581,50.2727858 L5.52597321,50.2732997 L5.52597321,50.2537718 L5.52597321,38.9724484 L5.52597321,38.9729623 C5.55979785,38.8460333 5.55979785,38.7124186 5.52597321,38.5854949 L5.52597321,37.8968861 C5.52597321,37.5572124 5.6376978,37.3449755 5.87139632,37.1322256 C6.1050896,36.9199888 6.48228933,36.7401275 6.91894886,36.6527753 L10.8724327,35.8596107 Z M61.1324932,35.8596107 L65.0875144,36.652016 C65.5241609,36.7398904 65.9013606,36.9192294 66.135067,37.1314663 C66.3687734,37.3437031 66.4804901,37.55594 66.4804901,37.8961267 L66.4804901,38.5852486 L66.4810026,38.5857624 C66.4471779,38.7126915 66.4471779,38.8463061 66.4810026,38.9727168 L66.4810026,50.2885074 L66.4810026,50.3023824 L66.4810026,50.4724824 C66.4810026,50.8121561 66.369278,51.0238799 66.1355795,51.2361167 C65.9018862,51.4483536 65.5246864,51.6282149 65.0880269,51.715567 L61.1330057,52.5089984 L61.1324932,35.8596107 Z M1.52443927,39.5302439 L4.0249783,39.5302439 L4.0249783,49.5268061 L1.52443927,49.5268061 L1.52443927,39.5302439 Z M67.9785044,39.5302439 L70.4799618,39.5302439 L70.4799618,49.5268061 L67.9785044,49.5268061 L67.9785044,39.5302439 Z M20.0000102,52.138952 C20.1050725,52.1374103 20.211675,52.1415214 20.3177633,52.1584799 C20.6006565,52.1980489 20.8810045,52.2874652 21.1469861,52.4411116 C22.206832,53.0541818 22.5594843,54.3681217 21.9516089,55.4304242 C21.9505838,55.4319659 21.9500713,55.4329936 21.9490464,55.4360769 L20.1439981,58.5691785 C19.5310452,59.6324019 18.2128666,59.9869412 17.1510658,59.3723845 C16.0886483,58.7577751 15.7365996,57.4401122 16.3495131,56.3768888 L18.1561358,53.2437872 C18.5584472,52.5459301 19.2636467,52.1543582 20.0015937,52.1409923 L20.0000102,52.138952 Z M25.0917474,55.083536 C25.1968097,55.0819945 25.3034123,55.0861056 25.4095005,55.103064 C25.6923937,55.1426329 25.9737651,55.2320492 26.2397466,55.3856956 C27.3021641,56.000305 27.6542128,57.3179679 27.0412994,58.3811913 L25.2346766,61.513372 C24.6217238,62.5765954 23.3051196,62.9311347 22.2426627,62.317091 C21.1802452,61.7024816 20.8287213,60.3848187 21.44111,59.3215953 L23.2461583,56.1884937 C23.6484697,55.4906367 24.3541809,55.0990647 25.0916162,55.0856988 L25.0917474,55.083536 Z M29.763645,58.7573266 C29.8687072,58.7557849 29.9753098,58.759896 30.081398,58.7768545 C30.3642912,58.8164235 30.6461742,58.9058398 30.9116441,59.0594862 C31.9740616,59.6740956 32.3255855,60.990706 31.7126852,62.0539294 L30.3269518,64.4588769 C29.7139989,65.5221003 28.3958203,65.8757187 27.3340195,65.2615698 C26.271602,64.6469604 25.9200781,63.3292975 26.5329784,62.2660741 L27.9275022,59.847708 C28.3313487,59.1590992 29.0314314,58.7721449 29.764301,58.7587921 L29.763645,58.7573266 Z M34.4371169,62.4300647 C34.5421791,62.4285231 34.6487817,62.4326342 34.7548699,62.4495927 C35.0377632,62.4891616 35.3186228,62.5785779 35.5840927,62.7322243 C36.6465102,63.3468337 36.9980341,64.6644966 36.3851337,65.7277199 L35.4190694,67.403461 C34.8061166,68.4666843 33.4895124,68.8203028 32.4270556,68.2061538 C31.3646381,67.5915444 31.0125894,66.2738815 31.6255028,65.2106582 L32.5941255,63.5307074 C32.9964369,62.8364549 33.7011247,62.4453829 34.4376154,62.432017 L34.4371169,62.4300647 Z" id="Shape"></path>
            </g>
        </g>
    </g>
</svg>