<?xml version="1.0" encoding="UTF-8"?>
<svg width="59px" height="58px" viewBox="0 0 59 58" version="1.1" xmlns="http://www.w3.org/2000/svg" xmlns:xlink="http://www.w3.org/1999/xlink">
    <title>key</title>
    <g id="Page-1" stroke="none" stroke-width="1" fill="none" fill-rule="evenodd">
        <g id="Desktop" transform="translate(-686.000000, -1120.000000)" fill="#FFFFFF" fill-rule="nonzero">
            <g id="key" transform="translate(686.000000, 1120.000000)">
                <path d="M58.9523707,39.9228606 L57.1999481,35.219472 C57.1410961,35.0645636 57.034915,34.9337367 56.8990978,34.8382187 L54.3029669,33.1117929 L53.5419964,30.831333 C53.4238794,30.4741613 53.064176,30.2536321 52.6983092,30.3072068 L50.4149868,30.6407011 L50.2260795,30.5813117 L49.2996651,28.1999541 C49.1757849,27.8905413 48.8749452,27.687874 48.5444577,27.7057357 L46.2138294,27.8187009 L44.9631225,26.9851725 L44.7626996,25.0975654 C44.7392406,24.8595891 44.6034297,24.6448757 44.4029963,24.5198645 C44.2025734,24.3948533 43.9544022,24.3649561 43.7305161,24.4426166 L42.0962,25.0261332 L40.1902706,23.7577344 C41.2759866,20.4892418 41.0281947,16.898812 39.4939162,13.8089372 C37.9538957,10.7127895 35.3108805,8.40862021 32.048043,7.31299156 C29.3754221,6.42007282 26.5492944,6.43169361 23.9235578,7.3250355 C23.8704668,7.2120704 23.8231389,7.09287493 23.7642879,6.98572553 C20.6611735,0.739844818 13.1030938,-1.79025465 6.91435444,1.3474642 C0.731093678,4.47891017 -1.77074162,12.1059953 1.33279423,18.3459221 C3.42720946,22.5555602 7.72255703,25.2525823 12.3659027,25.3240294 C12.3601408,25.5262821 12.3601408,25.7289601 12.3659027,25.9312128 C12.5428728,32.9744943 18.2717553,38.577989 25.2164397,38.577989 C25.3283827,38.577989 25.4345627,38.577989 25.5469167,38.5721745 C26.0424267,38.5601306 26.5441107,38.5185988 27.0338366,38.4471634 L37.789853,56.2079364 C37.896033,56.3807066 38.0610661,56.5057177 38.2561473,56.5592924 L43.6784059,57.9763268 C43.7434319,57.9941854 43.8080492,58 43.8730762,58 C44.0323462,58 44.1916161,57.9522389 44.3216703,57.857127 C44.5105775,57.7263002 44.6282836,57.5120014 44.6459733,57.2856565 L45.0472404,52.272451 C45.0591754,52.1059112 45.0237814,51.9451871 44.9352974,51.8018995 L43.3129921,49.1227393 L43.5903792,46.7292612 C43.6315342,46.3542383 43.4076459,46.0028822 43.0475422,45.8899171 L40.8408152,45.2112972 L40.6992349,45.0742399 L40.8642679,42.5201121 C40.887727,42.1866178 40.6930609,41.8772051 40.3864475,41.7459742 L38.232821,40.8410094 L37.4541608,39.5490075 L38.0677879,37.7569822 C38.144337,37.5306373 38.1151169,37.280615 37.9912389,37.0783622 C37.8615956,36.8761095 37.6492357,36.744868 37.4130016,36.7211905 L35.6901847,36.5484203 L34.5040623,34.5836248 C35.3712128,33.6728443 36.0909672,32.6487053 36.6576888,31.5293672 L52.2928425,41.9071661 C52.4224857,41.9906444 52.5702295,42.037993 52.7175624,42.037993 C52.7648914,42.037993 52.8118084,42.0321786 52.8591427,42.025949 L58.3636861,40.9722956 C58.5879831,40.9307648 58.7826534,40.787894 58.8945965,40.5852266 C59.0127135,40.3821339 59.0304137,40.1441683 58.9534485,39.9240431 L58.9523707,39.9228606 Z M2.71955018,17.6434833 C-0.000376545979,12.1779921 2.19440288,5.49109561 7.61048753,2.74697378 C13.0327462,0.00221402433 19.6529273,2.21703186 22.3785434,7.68299083 C22.4139374,7.76023877 22.4493314,7.83789922 22.4847234,7.91515141 C22.4020003,7.95668217 22.3135163,7.99239934 22.2312105,8.03434688 C19.163075,9.58842781 16.8797526,12.2555739 15.7940365,15.5482011 C15.5993662,16.1375335 15.4520333,16.7388799 15.3396794,17.3402264 C15.2865883,17.3817572 15.2334994,17.4237047 15.1923465,17.4772837 C13.7408269,19.2930184 12.8148339,21.4721552 12.49012,23.7647356 C8.38357424,23.740232 4.57224214,21.3646656 2.71983465,17.643462 L2.71955018,17.6434833 Z M32.9931691,33.8913213 C32.7277192,34.1471487 32.6746292,34.5520794 32.8635259,34.8677226 L34.5686426,37.689777 C34.6925228,37.8982601 34.9106458,38.0349027 35.152643,38.0589948 L36.2794487,38.1719599 L35.8662445,39.3746529 C35.7896955,39.5947674 35.8189155,39.8389741 35.9370326,40.0354111 L37.0342326,41.86316 C37.1169556,42.0060329 37.2465926,42.1189874 37.40011,42.1788031 L39.2764338,42.9645724 L39.1229269,45.3280683 C39.1052299,45.5602289 39.193715,45.7865738 39.3649241,45.9472979 L39.9020085,46.4651937 C39.9904925,46.548672 40.0966788,46.6080667 40.2086219,46.6437796 L41.9725285,47.1857676 L41.7424684,49.1984071 C41.7247713,49.3711773 41.7601654,49.5497631 41.8486483,49.6984412 L43.4771697,52.3896156 L43.1705563,56.2179898 L38.9402147,55.1166199 L28.0841081,37.1899875 C27.919075,36.9162983 27.6001137,36.767195 27.2815737,36.827 C26.6975734,36.9341494 26.0954514,36.9997702 25.5057616,37.0114016 C25.4115156,37.0114016 25.3110913,37.017216 25.2168485,37.017216 C19.1163992,37.017216 14.0710068,32.0874719 13.9182374,25.8950702 C13.8709084,23.9717395 14.3075675,22.0845577 15.1689444,20.3938555 C15.2693644,22.1324018 15.7175444,23.8471324 16.5200576,25.4486321 C18.7737744,29.9796758 23.3169244,32.5995095 28.0314922,32.5995095 C29.9666058,32.5995095 31.9371199,32.1588658 33.7780433,31.2181987 C34.2204634,30.9918539 34.6571309,30.7418315 35.0703667,30.4619119 L35.3592799,30.6525439 C34.763353,31.8730986 33.9727663,32.9567131 32.9932513,33.8915858 L32.9931691,33.8913213 Z M52.882686,40.4229904 L35.4838365,28.8723745 C35.3541932,28.7888962 35.2064494,28.7415476 35.0591166,28.7415476 C34.8998466,28.7415476 34.7405767,28.7893088 34.6047594,28.8902257 C34.120765,29.2415817 33.6075653,29.5572142 33.0766444,29.8250983 C27.507095,32.6471528 20.698112,30.3728914 17.901906,24.7461871 C16.544998,22.0250304 16.3206905,18.929308 17.2763418,16.0353811 C18.226209,13.1418795 20.2382763,10.7958201 22.9343921,9.42652356 C22.9755471,9.40285032 23.0171151,9.3849928 23.0582722,9.36713421 C23.4122125,10.5220895 23.5776564,11.7190412 23.5480192,12.9155676 C23.0817249,12.9454701 22.6277787,13.0642456 22.2025952,13.2785551 C20.4974785,14.1419913 19.8011663,16.2496703 20.6625747,17.9703549 C21.2704387,19.1909096 22.497282,19.8995331 23.7661106,19.8995331 C24.2854948,19.8995331 24.8164052,19.7803376 25.3177205,19.5303153 C27.0228372,18.6668791 27.7191494,16.5592 26.857741,14.8385155 C26.4799371,14.0822287 25.8605469,13.5049425 25.0938344,13.1835368 C25.1526864,11.6950554 24.9580171,10.2065739 24.50366,8.77752545 C26.7869824,8.02123867 29.2415119,8.01542296 31.5721402,8.79538404 C34.439463,9.75392355 36.7642965,11.7843611 38.1212045,14.5050925 C39.555024,17.3868988 39.7143255,20.7684097 38.5459244,23.7752485 C38.4101072,24.1203742 38.5339894,24.5074431 38.8410116,24.7159369 L41.5786385,26.5379444 C41.7790614,26.6750017 42.0329956,26.7044843 42.2630558,26.6214227 L43.3310716,26.2401695 L43.4668888,27.5085683 C43.4903479,27.7407289 43.6142217,27.949212 43.808892,28.0800389 L45.5727986,29.2591288 C45.7086159,29.3484207 45.8736489,29.396186 46.0390929,29.3899557 L48.0689235,29.2948491 L48.9245478,31.4976953 C49.0072709,31.7119941 49.1842347,31.8789486 49.4023682,31.9562008 L50.1044857,32.1941771 C50.2164287,32.2298942 50.3403089,32.2419382 50.4584259,32.2240796 L52.2873386,31.9562061 L52.9244289,33.8732639 C52.97752,34.0398037 53.089462,34.1826766 53.2310423,34.2781946 L55.8390786,36.0108933 L57.1782864,39.6070644 L52.882686,40.4229904 Z M24.6087653,18.1372338 C23.6646612,18.613601 22.5143501,18.2323403 22.0423454,17.280028 C21.5702881,16.3273042 21.9480994,15.1664907 22.8917957,14.6901766 C23.0510657,14.6066983 23.2222727,14.5531194 23.3934798,14.5236368 C23.2576626,15.3334983 23.0337764,16.1313031 22.7209996,16.9049945 C22.5559666,17.3041095 22.7444587,17.7622003 23.1399669,17.9291548 C23.535471,18.0956946 23.9894172,17.9054815 24.1548612,17.5063622 C24.5030384,16.6549721 24.7565512,15.7736635 24.9100686,14.8865286 C25.1401287,15.0651145 25.3290359,15.2914593 25.4648426,15.5593328 C25.9364891,16.4937908 25.5529158,17.660856 24.6088074,18.13717 L24.6087653,18.1372338 Z" id="Shape"></path>
            </g>
        </g>
    </g>
</svg>