<?xml version="1.0" encoding="UTF-8"?>
<svg width="42px" height="52px" viewBox="0 0 42 52" version="1.1" xmlns="http://www.w3.org/2000/svg" xmlns:xlink="http://www.w3.org/1999/xlink">
    <title>location</title>
    <g id="Page-1" stroke="none" stroke-width="1" fill="none" fill-rule="evenodd">
        <g id="Desktop" transform="translate(-369.000000, -1120.000000)" fill="#FFFFFF" fill-rule="nonzero">
            <g id="location" transform="translate(369.000000, 1120.000000)">
                <path d="M29.65834,37.6589011 L28.1576346,39.4353035 C34.4068518,40.2304388 38.7739937,42.0331348 38.7739937,44.1325861 C38.7739937,46.9680612 30.8190467,49.2661803 21.0076524,49.2661803 C11.195526,49.2661803 3.24009083,46.9676946 3.24009083,44.1320974 C3.24009083,42.0330126 7.60772091,40.2298523 13.8564499,39.4348148 L12.3557445,37.6584123 C5.36331383,38.8577986 0.507042254,41.4550923 0.507042254,44.4743289 C0.507042254,48.6304679 9.68517953,52 21.0070423,52 C32.328905,52 41.5070423,48.6304679 41.5070423,44.4743289 C41.5070423,41.4550923 36.651747,38.8577497 29.6588282,37.6589011 L29.65834,37.6589011 Z M38.1900402,17.2032096 C38.1900402,7.70210176 30.4963773,0 21.0070423,0 C11.517097,0 3.82404428,7.70222395 3.82404428,17.2032096 C3.82404428,26.7041953 21.0070423,45.8756329 21.0070423,45.8756329 C21.0070423,45.8756329 38.1900402,26.7040731 38.1900402,17.2032096 Z M21.0070423,2.86638706 C28.9142723,2.86638706 35.3258004,9.36585251 35.3258004,17.3815952 C35.3258004,25.3973378 21.0070423,41.5736087 21.0070423,41.5736087 C21.0070423,41.5736087 6.68828407,25.3979488 6.68828407,17.3815952 C6.68828407,9.3652416 13.0995681,2.86638706 21.0070423,2.86638706 Z M28.1672756,15.7700161 C28.1672756,11.8110786 24.9618166,8.60136045 21.0070423,8.60136045 C17.0536103,8.60136045 13.8477852,11.8110786 13.8477852,15.7700161 C13.8477852,19.7280983 17.0537323,22.9376943 21.0070423,22.9376943 C24.9618166,22.9376943 28.1672756,19.7279761 28.1672756,15.7700161 Z M16.7109266,15.7700161 C16.7109266,13.394678 18.6349831,11.4688471 21.0070423,11.4688471 C23.3805659,11.4688471 25.3031579,13.3941893 25.3031579,15.7700161 C25.3031579,18.1449876 23.3805659,20.0702076 21.0070423,20.071185 C18.6344949,20.0707077 16.7109266,18.1448654 16.7109266,15.7700161 Z" id="Shape"></path>
            </g>
        </g>
    </g>
</svg>